<svg width="25" height="24" viewBox="0 0 25 24" fill="none" xmlns="http://www.w3.org/2000/svg">
<path d="M5.2832 16.6134H16.2744C17.5207 16.6134 18.5374 15.5636 18.5374 14.2767V9.50175C18.5374 9.49752 18.5374 9.48905 18.5374 9.48482C18.5374 9.47212 18.5374 9.46365 18.5374 9.45095C18.5374 9.44249 18.5374 9.43402 18.5333 9.42555C18.5333 9.41709 18.5292 9.40439 18.5292 9.39592C18.5292 9.38745 18.5251 9.37899 18.5251 9.37052C18.521 9.36206 18.5211 9.35359 18.517 9.34089C18.5129 9.33242 18.5129 9.32396 18.5088 9.31549C18.5047 9.30702 18.5047 9.29856 18.5006 9.29009C18.4965 9.28163 18.4924 9.27316 18.4883 9.26046C18.4842 9.25199 18.4801 9.24353 18.476 9.23929C18.4719 9.23083 18.4678 9.22236 18.4637 9.2139C18.4596 9.20543 18.4555 9.2012 18.4514 9.19273C18.4473 9.18426 18.4391 9.1758 18.435 9.16733C18.4309 9.15886 18.4268 9.15463 18.4186 9.14617C18.4145 9.1377 18.4063 9.13347 18.4022 9.125C18.3981 9.11653 18.3899 9.1123 18.3858 9.10383C18.3817 9.09537 18.3735 9.09114 18.3694 9.0869C18.3612 9.07844 18.3571 9.0742 18.3489 9.06574C18.3407 9.0615 18.3366 9.05304 18.3284 9.0488C18.3202 9.04457 18.312 9.0361 18.3038 9.03187C18.2956 9.02764 18.2915 9.0234 18.2833 9.01917C18.2751 9.01494 18.2669 9.0107 18.2587 9.00224C18.2505 8.99801 18.2423 8.99377 18.2341 8.98954C18.2259 8.98531 18.2177 8.98107 18.2095 8.97684C18.2013 8.97261 18.1931 8.96837 18.1849 8.96414C18.1767 8.95991 18.1685 8.95991 18.1603 8.95567C18.1521 8.95144 18.1398 8.94721 18.1316 8.94721C18.1234 8.94721 18.1152 8.94298 18.1111 8.94298C18.0988 8.93874 18.0906 8.93874 18.0783 8.93874C18.0742 8.93874 18.0701 8.93451 18.0619 8.93451L4.13119 6.94916V4.94265C4.13119 4.92149 4.13119 4.90032 4.12709 4.88339C4.12709 4.87915 4.12709 4.87492 4.12299 4.86645C4.12299 4.85376 4.11889 4.84106 4.11889 4.82836C4.11479 4.81566 4.11479 4.80719 4.11069 4.79449C4.11069 4.78602 4.10659 4.78179 4.10659 4.77333C4.10249 4.76063 4.09839 4.74793 4.09429 4.73523C4.09429 4.73099 4.09019 4.72253 4.09019 4.71829C4.08609 4.7056 4.082 4.69713 4.0738 4.68443C4.0697 4.6802 4.0697 4.67173 4.0656 4.6675C4.0615 4.65903 4.0574 4.65056 4.0492 4.6421C4.0451 4.63363 4.041 4.6294 4.0369 4.62093C4.0328 4.61247 4.0287 4.60823 4.0246 4.59977C4.0205 4.5913 4.0123 4.58283 4.0082 4.57437C4.0041 4.57013 4 4.5659 3.9959 4.56167C3.9877 4.5532 3.9795 4.54474 3.9713 4.53627C3.9672 4.53204 3.9631 4.5278 3.959 4.52357C3.95081 4.5151 3.94261 4.50664 3.93031 4.49817C3.92621 4.49394 3.91801 4.4897 3.91391 4.48547C3.90571 4.47701 3.89751 4.47277 3.88931 4.46431C3.87701 4.45584 3.86471 4.44737 3.85651 4.44314C3.85241 4.43891 3.84831 4.43891 3.84421 4.43467C3.82782 4.42621 3.80732 4.41774 3.79092 4.40927L0.769458 3.097C0.48658 2.97424 0.162706 3.1097 0.0438153 3.40179C-0.0750753 3.69387 0.0561143 4.02829 0.338992 4.15105L3.02018 5.3194V7.91009V8.3207V11.4702V14.2852V17.841C3.02018 19.0263 3.88111 20.0084 4.99212 20.1566C4.79124 20.5037 4.67235 20.9101 4.67235 21.3419C4.67235 22.616 5.67677 23.6489 6.90667 23.6489C8.13657 23.6489 9.14099 22.6118 9.14099 21.3419C9.14099 20.9185 9.0303 20.5164 8.83352 20.1777H13.8105C13.6137 20.5206 13.503 20.9185 13.503 21.3419C13.503 22.616 14.5075 23.6489 15.7374 23.6489C16.9673 23.6489 17.9717 22.6118 17.9717 21.3419C17.9717 20.0719 16.9673 19.0348 15.7374 19.0348H5.2832C4.64365 19.0348 4.12709 18.4972 4.12709 17.841V16.2917C4.46326 16.4949 4.86093 16.6134 5.2832 16.6134ZM8.03818 21.3376C8.03818 21.9811 7.52982 22.5017 6.91077 22.5017C6.29172 22.5017 5.78336 21.9768 5.78336 21.3376C5.78336 20.6984 6.29172 20.1735 6.91077 20.1735C7.52982 20.1735 8.03818 20.6942 8.03818 21.3376ZM16.8689 21.3376C16.8689 21.9811 16.3605 22.5017 15.7415 22.5017C15.1224 22.5017 14.6141 21.9768 14.6141 21.3376C14.6141 20.6984 15.1224 20.1735 15.7415 20.1735C16.3605 20.1735 16.8689 20.6942 16.8689 21.3376ZM16.2744 15.4705H5.2832C4.64365 15.4705 4.12709 14.9329 4.12709 14.2767V11.4617V8.31224V8.10058L17.4305 9.99279V14.2725C17.4305 14.9371 16.9099 15.4705 16.2744 15.4705Z" fill="#585858"/>
<circle cx="18.0906" cy="6.90945" r="6.90945" fill="#3E6E00"/>
<path d="M18.1265 10.1799C16.9972 10.1799 16.1355 9.78752 15.5415 9.00285L16.1025 8.39785C16.6085 9.04318 17.2832 9.36585 18.1265 9.36585C18.6252 9.36585 19.0322 9.21552 19.3475 8.91485C19.6629 8.61418 19.8205 8.24018 19.8205 7.79285C19.8205 7.31618 19.6629 6.93485 19.3475 6.64885C19.0395 6.35552 18.6362 6.20885 18.1375 6.20885C17.4775 6.20885 16.9129 6.43985 16.4435 6.90185L15.7725 6.67085V2.71085H20.2605V3.52485H16.6855V6.07685C17.1255 5.63685 17.6975 5.41685 18.4015 5.41685C19.0469 5.41685 19.5969 5.62952 20.0515 6.05485C20.5062 6.47285 20.7335 7.04118 20.7335 7.75985C20.7335 8.49318 20.4879 9.07985 19.9965 9.51985C19.5052 9.95985 18.8819 10.1799 18.1265 10.1799Z" fill="white"/>
</svg>
