<svg width="12" height="22" viewBox="0 0 12 22" fill="none" xmlns="http://www.w3.org/2000/svg">
<path fill-rule="evenodd" clip-rule="evenodd" d="M9.04 4.11068C9.71276 4.08845 10.3855 4.10676 11.0596 4.10414C11.1414 4.10414 11.2232 4.10414 11.3366 4.10414V0.637139C10.9778 0.601842 10.6019 0.549549 10.2259 0.532554C9.53599 0.502486 8.84477 0.468496 8.15486 0.484184C7.10088 0.506408 6.1023 0.760027 5.23035 1.37969C4.23045 2.09218 3.68169 3.09228 3.47327 4.27409C3.38753 4.76172 3.3651 5.26634 3.35191 5.76182C3.33212 6.54098 3.34663 7.31752 3.34927 8.09799V8.38952H0V12.2631H3.32817V22H7.39637V12.2788H10.7153C10.8855 10.9911 11.0504 9.71645 11.2258 8.38691C10.9593 8.38691 10.7193 8.38691 10.4805 8.38691C9.53599 8.39083 7.3713 8.38691 7.3713 8.38691C7.3713 8.38691 7.38054 6.46646 7.40296 5.6337C7.43462 4.49111 8.11793 4.14336 9.04 4.11068Z" fill="#3E3F46"/>
</svg>
