<svg width="90" height="89" viewBox="0 0 90 89" fill="none" xmlns="http://www.w3.org/2000/svg">
<path d="M88.4441 18.0839C87.949 17.5463 87.0877 17.4139 86.4541 17.7776L68.746 27.968L44.2048 14.1213C44.1936 14.1149 44.1809 14.1085 44.1698 14.1037L37.2938 0.868048C37.09 0.477214 36.7461 0.194858 36.3306 0.0688337C35.9262 -0.055595 35.4677 -0.0109393 35.084 0.199632L1.84087 18.4938C1.46515 18.698 1.1802 19.0538 1.06079 19.4733C0.944576 19.8913 0.995549 20.33 1.20888 20.7112L9.06555 34.526C9.07828 34.5531 9.09415 34.5818 9.11326 34.6089V65.5406H8.8028L8.91746 66.1963C8.97955 66.5488 9.17694 67.4007 9.66887 67.6974L42.5905 87.7129C42.8229 87.8516 43.0951 88 43.4247 88C43.6332 88 43.9437 87.9793 44.2526 87.8006L77.8428 67.6926C78.1803 67.4932 78.3825 67.0386 78.4972 66.6589H79.0018V34.7063L88.7816 20.0939C89.2258 19.4334 88.9313 18.6071 88.4441 18.0839ZM41.0207 15.0465L11.28 32.0693L4.81796 20.5453L35.1875 3.8304L41.0207 15.0465ZM75.7683 37.2124V65.5965L45.1394 83.5971V55.2162L75.7683 37.2124ZM53.0405 37.0194C52.816 37.147 52.6345 37.3256 52.4849 37.5681L47.287 45.9351L45.1377 44.5058V18.3056L65.5348 29.8424L53.0405 37.0194ZM49.1115 49.0395L54.9733 39.626L81.9454 24.1059L75.6872 33.2865L49.1115 49.0395ZM45.5198 48.6885L43.4406 52.0258L39.6516 49.7781L43.4613 47.339L45.5198 48.6885ZM41.909 55.2051V83.562L12.3372 65.6108V37.2491L41.909 55.2051ZM13.7923 34.4032L41.909 18.3215V44.5537L36.5869 47.9308L13.7923 34.4032Z" fill="#3E6E00" stroke="#4A7710" stroke-miterlimit="10"/>
</svg>
