<svg width="86" height="88" viewBox="0 0 86 88" fill="none" xmlns="http://www.w3.org/2000/svg">
<path fill-rule="evenodd" clip-rule="evenodd" d="M17.8668 71.0001C17.8668 71.9746 17.8544 72.794 17.8689 73.613C17.9306 77.1061 17.9991 80.5989 18.069 84.0918C18.0778 84.5432 18.0995 84.9945 18.1377 85.444C18.1465 85.5444 18.2303 85.686 18.3152 85.7195C18.4048 85.7547 18.575 85.7215 18.6452 85.6528C19.387 84.9293 20.13 84.2061 20.8446 83.4565C21.8925 82.3576 22.9081 81.2288 23.9538 80.128C25.1481 78.8705 26.3603 77.6298 27.565 76.3817C29.5566 74.3184 31.5557 72.2622 33.5363 70.1888C34.5784 69.098 35.5854 67.9749 36.6126 66.8705C37.3131 66.1175 38.0058 65.356 38.7326 64.6285C39.0915 64.2689 39.0485 64.0444 38.718 63.6703C37.8645 62.7045 37.0521 61.7004 36.2706 60.6758C35.7997 60.0587 35.5942 59.9894 34.8324 60.1978C33.1296 60.6635 31.4676 61.3076 29.6356 61.1807C26.8986 60.9915 24.5793 60.0213 22.8277 57.8655C21.7578 56.5487 20.9445 55.12 20.7087 53.4072C20.6639 53.0819 20.4514 52.7792 20.3165 52.466C20.0495 52.6454 19.7411 52.7853 19.522 53.0106C17.9151 54.6606 16.3249 56.3265 14.7317 57.9899C13.6003 59.1713 12.4689 60.3525 11.3446 61.5405C9.50855 63.4803 7.68228 65.4293 5.84393 67.3668C4.9941 68.2627 4.11451 69.1315 3.27305 70.0351C3.12087 70.1985 3.08818 70.4717 3 70.6942C3.21695 70.7529 3.43344 70.8598 3.65101 70.8633C7.04662 70.9169 10.4419 70.9615 13.8378 70.998C15.1378 71.0118 16.4381 71.0001 17.8668 71.0001Z" stroke="#3E6E00" stroke-width="4" stroke-miterlimit="10"/>
<path fill-rule="evenodd" clip-rule="evenodd" d="M60.9441 13.2962C60.9441 14.2573 60.9169 15.2196 60.9506 16.1796C60.9988 17.546 61.6232 18.6367 62.8809 19.186C64.2385 19.779 65.6757 20.1911 67.0726 20.6978C67.8193 20.9687 68.5667 21.2444 69.2907 21.5683C70.227 21.9871 70.304 23.3378 69.9176 23.9706C69.3997 24.8182 68.7937 25.6138 68.21 26.4207C67.5455 27.3391 66.8096 28.2112 66.2021 29.1646C65.1795 30.7693 65.4984 32.4255 66.7794 34.0815C67.777 35.3712 68.6909 36.7307 69.563 38.1084C70.2562 39.2032 69.5735 40.598 68.312 40.9806C66.6718 41.4781 65.0673 42.0936 63.4199 42.5633C62.109 42.937 61.1961 43.6798 60.7442 44.9392C60.5905 45.368 60.5288 45.8473 60.518 46.3059C60.4799 47.9336 60.507 49.5633 60.4535 51.1902C60.4366 51.7039 60.3443 52.2627 60.1115 52.7117C59.6655 53.5713 58.6584 53.8514 57.6685 53.5391C56.5126 53.1744 55.3496 52.8322 54.1915 52.4746C53.54 52.2733 52.8754 52.1012 52.2461 51.8446C51.0937 51.3747 50.1282 51.8093 49.2286 52.4339C48.0759 53.2343 47.4184 54.4694 46.597 55.5596C45.9565 56.4095 45.3479 57.2971 44.6091 58.0566C43.7623 58.9268 42.4663 58.6508 41.7741 57.6842C40.785 56.3032 39.8105 54.909 38.7572 53.5768C37.8665 52.45 36.7236 51.6095 35.1904 51.7823C34.3559 51.8764 33.5541 52.2521 32.7365 52.4967C31.3006 52.9265 29.8697 53.3746 28.4251 53.7742C27.3533 54.0708 26.3078 52.9787 26.3174 51.8221C26.3326 49.9781 26.3211 48.1331 26.2759 46.2896C26.2359 44.6613 24.9808 43.1169 23.3811 42.7266C22.4068 42.4887 21.4896 42.0293 20.5317 41.7149C19.773 41.4657 18.9923 41.281 18.2192 41.0759C17.3426 40.8435 16.6231 40.1606 16.635 39.2741C16.642 38.7527 16.9511 38.1829 17.2623 37.7277C18.4264 36.0247 19.7379 34.4143 20.811 32.659C21.4 31.6955 21.3734 30.5126 20.6667 29.5037C19.4041 27.7015 18.1082 25.9224 16.8377 24.1256C16.0007 22.9419 16.4183 21.527 17.8298 21.0727C19.6089 20.5 21.3869 19.9234 23.1697 19.3624C24.298 19.0072 25.1534 18.3016 25.6769 17.2798C25.9199 16.8056 25.9915 16.2052 26 15.6599C26.0309 13.6784 25.978 11.6957 26.0061 9.71428C26.0206 8.68281 26.5814 8.00371 27.4796 7.79016C27.7562 7.72451 28.084 7.7013 28.3484 7.78417C29.6065 8.17806 30.8463 8.6293 32.1018 9.03258C33.1382 9.36543 34.1695 9.78577 35.2361 9.93444C36.2649 10.0779 37.2426 9.61435 37.9409 8.84332C38.7955 7.89948 39.559 6.87277 40.3362 5.8622C40.9421 5.07426 41.4605 4.2159 42.105 3.46209C42.8959 2.53685 43.7646 2.4835 44.6562 3.21241C45.612 3.99405 46.1384 5.07779 46.8729 6.01226C47.8643 7.27373 48.5439 8.81856 50.0366 9.61696C50.7237 9.98441 51.4819 10.2509 52.3349 9.95581C53.8424 9.43431 55.3726 8.97738 56.8969 8.50462C57.3658 8.35917 57.8431 8.23602 58.3224 8.12763C59.9678 7.75588 60.8367 8.56119 60.9023 10.2056C60.9435 11.2344 60.9099 12.266 60.9099 13.2964C60.9218 13.2962 60.933 13.2962 60.9441 13.2962Z" stroke="#3E6E00" stroke-width="4" stroke-miterlimit="10"/>
<path fill-rule="evenodd" clip-rule="evenodd" d="M68.1335 71.0001C68.1335 71.9746 68.1458 72.794 68.1312 73.613C68.0695 77.1061 68.001 80.5989 67.9313 84.0918C67.9223 84.5432 67.9008 84.9945 67.8625 85.444C67.8538 85.5444 67.7698 85.686 67.6849 85.7195C67.5952 85.7547 67.4252 85.7215 67.3548 85.6528C66.613 84.9293 65.8699 84.2061 65.1554 83.4565C64.1077 82.3576 63.092 81.2288 62.0463 80.128C60.8519 78.8705 59.6397 77.6298 58.435 76.3817C56.4434 74.3184 54.4443 72.2622 52.4637 70.1888C51.4217 69.098 50.4146 67.9749 49.3875 66.8705C48.6869 66.1175 47.9944 65.356 47.2676 64.6285C46.9087 64.2689 46.9516 64.0444 47.2821 63.6703C48.1355 62.7045 48.948 61.7004 49.7295 60.6758C50.2005 60.0587 50.4058 59.9894 51.1677 60.1978C52.8705 60.6635 54.5324 61.3076 56.3644 61.1807C59.1014 60.9915 61.4209 60.0213 63.1723 57.8655C64.2422 56.5487 65.0556 55.12 65.2915 53.4072C65.3362 53.0819 65.5485 52.7792 65.6835 52.466C65.9507 52.6454 66.2591 52.7853 66.4782 53.0106C68.085 54.6606 69.6753 56.3265 71.2683 57.9899C72.3997 59.1713 73.5313 60.3525 74.6554 61.5405C76.4916 63.4803 78.3177 65.4293 80.1561 67.3668C81.006 68.2627 81.8855 69.1315 82.7269 70.0351C82.8793 70.1985 82.912 70.4717 83 70.6942C82.783 70.7529 82.5667 70.8598 82.349 70.8633C78.9535 70.9169 75.5581 70.9615 72.1623 70.998C70.8623 71.0118 69.562 71.0001 68.1335 71.0001Z" stroke="#3E6E00" stroke-width="4" stroke-miterlimit="10"/>
</svg>
