<svg width="21" height="18" viewBox="0 0 21 18" fill="none" xmlns="http://www.w3.org/2000/svg">
<path d="M0.962579 8.61228L5.66263 10.3798L7.48183 16.2746C7.59824 16.6522 8.05644 16.7917 8.36057 16.5412L10.9805 14.3892C11.2551 14.1638 11.6462 14.1525 11.9332 14.3624L16.6586 17.8191C16.9839 18.0574 17.4448 17.8778 17.5264 17.4817L20.988 0.70481C21.0771 0.272118 20.6551 -0.0888478 20.2462 0.0705004L0.957072 7.56802C0.481056 7.75299 0.485204 8.43203 0.962579 8.61228ZM7.18865 9.43889L16.3743 3.73859C16.5394 3.63645 16.7092 3.86136 16.5675 3.99385L8.98664 11.094C8.72018 11.3439 8.5483 11.6783 8.49961 12.0413L8.24138 13.9696C8.20718 14.227 7.84825 14.2526 7.77774 14.0034L6.78457 10.4873C6.67082 10.0862 6.83659 9.65784 7.18865 9.43889Z" fill="#3E3F46"/>
</svg>
