<svg width="119" height="72" viewBox="0 0 119 72" fill="none" xmlns="http://www.w3.org/2000/svg">
<path d="M118.998 33.4011C118.998 26.4971 117.08 20.7119 113.453 16.6716C110.072 12.9182 105.255 10.8499 99.8887 10.8499H85.3363V2.32051C85.3363 1.04177 84.32 -9.15527e-05 83.0727 -9.15527e-05H18.3938C17.1465 -9.15527e-05 16.1302 1.04177 16.1302 2.32051V14.8902H2.55086C1.30357 14.8902 0.287292 15.9302 0.287292 17.2089C0.287292 18.4896 1.30357 19.5295 2.55086 19.5295H18.3149C19.6429 19.5295 20.6836 18.5107 20.6836 17.2089V4.63917H80.8393V58.7004H49.3601C49.2868 58.7004 49.1873 58.7004 49.1554 58.7081L48.357 58.8776L48.0489 58.1034C46.5161 54.2287 42.9095 51.7251 38.8595 51.7251C34.7833 51.7251 31.1766 54.246 29.6682 58.1477L29.362 58.9411L28.5487 58.7562C28.3646 58.7158 28.2181 58.6966 28.0584 58.6966H20.6799V46.0999C20.6799 44.8211 19.6655 43.7793 18.4201 43.7793H2.54897C1.30168 43.7793 0.2854 44.8211 0.2854 46.0999C0.2854 47.3786 1.30168 48.4185 2.54897 48.4185H16.1283V60.9883C16.1283 62.267 17.1446 63.3089 18.3919 63.3089H29.0296L29.1986 64.0946C30.1886 68.6742 34.2498 72 38.8577 72C43.5087 72 47.4798 68.7473 48.5148 64.0888L48.6876 63.3108H89.0594L89.2341 64.0888C90.2579 68.6722 94.3172 72 98.8913 72C103.542 72 107.513 68.7473 108.548 64.0888L108.721 63.3108H116.737C117.984 63.3108 119 62.2689 119 60.9902V33.4011H118.998ZM38.8595 67.3896C35.8934 67.3896 33.4797 64.915 33.4797 61.8761C33.4797 58.8371 35.8934 56.3644 38.8595 56.3644C41.8218 56.3644 44.2319 58.8371 44.2319 61.8761C44.2319 64.9169 41.8218 67.3896 38.8595 67.3896ZM98.8913 67.3896C95.9289 67.3896 93.5189 64.915 93.5189 61.8761C93.5189 58.8371 95.9289 56.3644 98.8913 56.3644C101.855 56.3644 104.267 58.8371 104.267 61.8761C104.235 64.9188 101.824 67.3896 98.8913 67.3896ZM114.473 58.7004H108.304L108.056 58.0764C106.544 54.2788 102.86 51.7271 98.8913 51.7271C94.8488 51.7271 91.2516 54.219 89.7282 58.0745L89.4802 58.7004H85.3645V15.4892H99.9188C109.033 15.4892 114.473 22.1948 114.473 33.4281V58.7004Z" fill="#3E6E00"/>
</svg>
