<svg width="130" height="72" viewBox="0 0 130 72" fill="none" xmlns="http://www.w3.org/2000/svg">
<path d="M129.998 33.4011C129.998 26.4971 128.08 20.7119 124.453 16.6716C121.072 12.9182 116.255 10.8499 110.889 10.8499H96.3363V2.32051C96.3363 1.04177 95.32 -9.15527e-05 94.0727 -9.15527e-05H29.3938C28.1465 -9.15527e-05 27.1302 1.04177 27.1302 2.32051V14.8902H13.5509C12.3036 14.8902 11.2873 15.9302 11.2873 17.2089C11.2873 18.4896 12.3036 19.5295 13.5509 19.5295H29.3149C30.6429 19.5295 31.6836 18.5107 31.6836 17.2089V4.63917H91.8393V58.7004H60.3601C60.2868 58.7004 60.1873 58.7004 60.1554 58.7081L59.357 58.8776L59.0489 58.1034C57.5161 54.2287 53.9095 51.7251 49.8595 51.7251C45.7833 51.7251 42.1766 54.246 40.6682 58.1477L40.362 58.9411L39.5487 58.7562C39.3646 58.7158 39.2181 58.6966 39.0584 58.6966H31.6799V46.0999C31.6799 44.8211 30.6655 43.7793 29.4201 43.7793H13.549C12.3017 43.7793 11.2854 44.8211 11.2854 46.0999C11.2854 47.3786 12.3017 48.4185 13.549 48.4185H27.1283V60.9883C27.1283 62.267 28.1446 63.3089 29.3919 63.3089H40.0296L40.1986 64.0946C41.1886 68.6742 45.2498 72 49.8577 72C54.5087 72 58.4798 68.7473 59.5148 64.0888L59.6876 63.3108H100.059L100.234 64.0888C101.258 68.6722 105.317 72 109.891 72C114.542 72 118.513 68.7473 119.548 64.0888L119.721 63.3108H127.737C128.984 63.3108 130 62.2689 130 60.9902V33.4011H129.998ZM49.8595 67.3896C46.8934 67.3896 44.4797 64.915 44.4797 61.8761C44.4797 58.8371 46.8934 56.3644 49.8595 56.3644C52.8218 56.3644 55.2319 58.8371 55.2319 61.8761C55.2319 64.9169 52.8218 67.3896 49.8595 67.3896ZM109.891 67.3896C106.929 67.3896 104.519 64.915 104.519 61.8761C104.519 58.8371 106.929 56.3644 109.891 56.3644C112.855 56.3644 115.267 58.8371 115.267 61.8761C115.235 64.9188 112.824 67.3896 109.891 67.3896ZM125.473 58.7004H119.304L119.056 58.0764C117.544 54.2788 113.86 51.7271 109.891 51.7271C105.849 51.7271 102.252 54.219 100.728 58.0745L100.48 58.7004H96.3645V15.4892H110.919C120.033 15.4892 125.473 22.1948 125.473 33.4281V58.7004Z" fill="#3E6E00"/>
<path d="M56.9398 42.5294C57.5578 42.5294 58.1402 42.2925 58.576 41.8669L67.0064 33.2181L67.3915 32.5055C67.4028 32.4555 67.4235 32.3919 67.461 32.311L67.5625 31.716C67.5569 31.6447 67.5569 31.5426 67.5456 31.4367L67.4254 31.196L67.4836 31.0997L67.2338 30.3159L67.0328 30.027C67.0178 30.0097 66.999 29.9866 66.9783 29.95C66.9126 29.9057 66.8599 29.8306 66.8055 29.7516L58.9648 21.7403C58.5553 21.3243 57.973 21.0855 57.3606 21.0855C56.7482 21.0855 56.164 21.3243 55.7583 21.7403C55.3281 22.1813 55.0914 22.7667 55.0914 23.3849C55.0914 24.0031 55.3281 24.5866 55.7583 25.0276L59.827 29.2009H2.26357C1.01628 29.2009 0 30.2427 0 31.5215C0 32.8002 1.01628 33.8401 2.26357 33.8401H59.6918L55.3694 38.5699C54.4734 39.4924 54.4659 40.9772 55.3487 41.8823C55.7526 42.2925 56.3331 42.5294 56.9398 42.5294Z" fill="#3E6E00"/>
</svg>
