<svg width="19" height="16" viewBox="0 0 19 16" fill="none" xmlns="http://www.w3.org/2000/svg">
<path d="M9.5 16C9.22951 16 8.96873 15.9072 8.7655 15.7388C7.99794 15.1035 7.25793 14.5065 6.60503 13.9799L6.6017 13.9772C4.68752 12.4332 3.03456 11.0998 1.88446 9.7863C0.598824 8.31791 0 6.92567 0 5.40473C0 3.92701 0.535332 2.56372 1.50728 1.56581C2.49082 0.5561 3.84039 0 5.3078 0C6.40456 0 7.40897 0.3282 8.29308 0.975406C8.73926 1.3021 9.14369 1.70192 9.5 2.16828C9.85645 1.70192 10.2607 1.3021 10.7071 0.975406C11.5912 0.3282 12.5956 0 13.6923 0C15.1596 0 16.5093 0.5561 17.4929 1.56581C18.4648 2.56372 19 3.92701 19 5.40473C19 6.92567 18.4013 8.31791 17.1157 9.78616C15.9656 11.0998 14.3128 12.433 12.3989 13.9769C11.7448 14.5043 11.0037 15.1023 10.2344 15.739C10.0313 15.9072 9.77035 16 9.5 16ZM5.3078 1.05348C4.15495 1.05348 3.09588 1.48897 2.32542 2.27983C1.54352 3.08263 1.11285 4.19236 1.11285 5.40473C1.11285 6.68391 1.61513 7.82794 2.74131 9.11412C3.8298 10.3574 5.44884 11.6633 7.32345 13.1755L7.32693 13.1782C7.98228 13.7069 8.7252 14.3062 9.49841 14.9461C10.2763 14.3049 11.0203 13.7047 11.677 13.1752C13.5514 11.663 15.1703 10.3574 16.2588 9.11412C17.3849 7.82794 17.8872 6.68391 17.8872 5.40473C17.8872 4.19236 17.4565 3.08263 16.6746 2.27983C15.9043 1.48897 14.8451 1.05348 13.6923 1.05348C12.8478 1.05348 12.0724 1.30758 11.3878 1.80866C10.7777 2.25541 10.3526 2.82016 10.1035 3.21531C9.97532 3.41852 9.74976 3.53981 9.5 3.53981C9.25024 3.53981 9.02468 3.41852 8.89654 3.21531C8.6475 2.82016 8.22248 2.25541 7.61221 1.80866C6.92757 1.30758 6.15218 1.05348 5.3078 1.05348Z" fill="#585858"/>
</svg>
