<svg width="16" height="14" viewBox="0 0 16 14" fill="none" xmlns="http://www.w3.org/2000/svg">
<path d="M7.99981 13.2735C7.79952 13.2735 7.60642 13.2016 7.45593 13.0708C6.88758 12.578 6.33962 12.1148 5.85617 11.7062L5.85371 11.7041C4.43631 10.5062 3.21234 9.47164 2.36072 8.45256C1.40874 7.31329 0.965332 6.2331 0.965332 5.05306C0.965332 3.90656 1.36173 2.84883 2.08143 2.07459C2.80972 1.2912 3.80903 0.859741 4.89561 0.859741C5.70773 0.859741 6.45147 1.11438 7.10612 1.61652C7.43651 1.86999 7.73598 2.18019 7.99981 2.54203C8.26376 2.18019 8.56312 1.86999 8.89362 1.61652C9.54827 1.11438 10.292 0.859741 11.1041 0.859741C12.1906 0.859741 13.19 1.2912 13.9183 2.07459C14.638 2.84883 15.0343 3.90656 15.0343 5.05306C15.0343 6.2331 14.591 7.31329 13.639 8.45245C12.7874 9.47164 11.5635 10.5061 10.1464 11.7039C9.66205 12.1131 9.11323 12.577 8.54359 13.0711C8.39321 13.2016 8.2 13.2735 7.99981 13.2735ZM4.89561 1.67709C4.04195 1.67709 3.25774 2.01498 2.68724 2.62858C2.10826 3.25144 1.78936 4.11244 1.78936 5.05306C1.78936 6.04553 2.16129 6.93314 2.9952 7.93104C3.80119 8.89562 5.00005 9.90885 6.38814 11.0821L6.39072 11.0842C6.87599 11.4944 7.4261 11.9594 7.99863 12.4559C8.57461 11.9584 9.12557 11.4927 9.61181 11.0819C10.9998 9.90864 12.1985 8.89562 13.0045 7.93104C13.8383 6.93314 14.2103 6.04553 14.2103 5.05306C14.2103 4.11244 13.8914 3.25144 13.3124 2.62858C12.742 2.01498 11.9577 1.67709 11.1041 1.67709C10.4788 1.67709 9.90463 1.87425 9.39767 2.26302C8.94589 2.60963 8.63118 3.04779 8.44666 3.35438C8.35178 3.51204 8.18476 3.60614 7.99981 3.60614C7.81487 3.60614 7.64785 3.51204 7.55297 3.35438C7.36856 3.04779 7.05385 2.60963 6.60196 2.26302C6.095 1.87425 5.52085 1.67709 4.89561 1.67709Z" fill="#333333"/>
</svg>
