<svg width="20" height="22" viewBox="0 0 20 22" fill="none" xmlns="http://www.w3.org/2000/svg">
<path d="M11.9465 0H7.70816C3.6188 0 0.291016 3.35054 0.291016 7.46787V10.6684C0.291016 13.5605 1.94663 16.1818 4.52939 17.4195V20.9825C4.52939 21.2909 4.91432 21.4535 5.13368 21.2326L8.20899 18.1363H11.9507C16.04 18.1363 19.3678 14.7857 19.3678 10.6684V7.46787C19.3678 3.35054 16.04 0 11.9465 0ZM10.5351 5.33419C10.4316 5.33419 10.324 5.33836 10.2206 5.35086C10.026 5.3717 9.85218 5.23001 9.83149 5.03831C9.81079 4.84245 9.95152 4.66742 10.1419 4.64658C10.2702 4.63408 10.4027 4.62575 10.5351 4.62575C12.4846 4.62575 14.0657 6.22184 14.0657 8.18049C14.0657 8.31384 14.0574 8.44303 14.045 8.57638C14.0243 8.76808 13.8463 8.91394 13.656 8.88893C13.4656 8.8681 13.3248 8.6889 13.3455 8.4972C13.3579 8.39302 13.3621 8.28467 13.3621 8.18049C13.3621 6.6094 12.0914 5.33419 10.5351 5.33419ZM12.6543 8.18049C12.6543 8.37635 12.4929 8.53471 12.3025 8.53471C12.1121 8.53471 11.9507 8.37218 11.9507 8.18049C11.9507 7.39703 11.3174 6.75942 10.5393 6.75942C10.3447 6.75942 10.1874 6.60106 10.1874 6.4052C10.1874 6.20933 10.3447 6.05098 10.5393 6.05098C11.7023 6.04681 12.6543 7.00113 12.6543 8.18049ZM15.1584 13.398C15.0549 13.8564 14.8273 14.2731 14.4962 14.6065C14.045 15.0608 13.4324 15.2941 12.6998 15.2941C12.5053 15.2941 12.2983 15.2775 12.0873 15.2441C10.3985 14.9774 8.04756 14.1439 6.51612 12.6062L6.49543 12.5854C4.96812 11.0434 4.14032 8.6764 3.87542 6.97612C3.71813 5.96346 3.9375 5.12166 4.50869 4.54657C4.83981 4.21318 5.25372 3.98398 5.70901 3.87979C5.75454 3.86729 5.80421 3.86729 5.84974 3.87562L7.57157 4.19651C7.7123 4.22151 7.82405 4.33403 7.85303 4.47572L8.35385 6.98863C8.37868 7.10531 8.34143 7.22616 8.25865 7.30951L7.24873 8.32634C8.08481 10.1225 9.03265 11.081 10.7421 11.8519L11.7561 10.8309C11.8389 10.7476 11.9589 10.7101 12.0748 10.7351L14.5748 11.2393C14.7155 11.2685 14.8273 11.381 14.8521 11.5227L15.1708 13.2563C15.1708 13.3021 15.1708 13.3522 15.1584 13.398ZM15.3488 9.33067C15.3033 9.52237 15.1005 9.64322 14.9101 9.59321C14.728 9.54321 14.6162 9.35151 14.6617 9.16814C14.7362 8.84726 14.7735 8.51804 14.7735 8.18465C14.7735 5.83011 12.8737 3.9173 10.5351 3.9173C10.4275 3.9173 10.3158 3.92147 10.2081 3.9298C10.0136 3.94647 9.8439 3.79645 9.82735 3.60058C9.81079 3.40472 9.9598 3.23385 10.1543 3.21719C10.2785 3.20885 10.4068 3.20468 10.5351 3.20468C13.2627 3.20468 15.4813 5.43838 15.4813 8.18465C15.4813 8.56805 15.4357 8.95561 15.3488 9.33067Z" fill="#3E3F46"/>
</svg>
