<svg width="22" height="22" viewBox="0 0 22 22" fill="none" xmlns="http://www.w3.org/2000/svg">
<path d="M10.9911 0H10.987C5.17221 0 0.44458 4.7841 0.44458 10.6684C0.44458 13.0021 1.18585 15.1649 2.45011 16.9194L1.13643 20.8825L5.18868 19.5698C6.85653 20.6908 8.84559 21.3368 10.9911 21.3368C16.8018 21.3368 21.5295 16.5527 21.5295 10.6684C21.5295 4.7841 16.8018 0 10.9911 0ZM17.1231 15.0649C16.8677 15.79 15.8588 16.3943 15.0557 16.5693C14.5039 16.686 13.7874 16.7819 11.3618 15.765C8.26493 14.4648 6.26763 11.281 6.11114 11.0726C5.96289 10.8643 4.85923 9.38485 4.85923 7.85543C4.85923 6.32602 5.62932 5.58007 5.93818 5.25918C6.19351 4.99664 6.61356 4.87579 7.01713 4.87579C7.14891 4.87579 7.26422 4.88412 7.37129 4.88829C7.68015 4.90079 7.83664 4.92163 8.04255 5.41337C8.29788 6.03431 8.9156 7.56372 8.98972 7.72208C9.06385 7.88044 9.13798 8.09297 9.03502 8.30134C8.93619 8.51387 8.84971 8.60972 8.69322 8.78892C8.53673 8.96811 8.38847 9.1098 8.2361 9.30567C8.09197 9.47653 7.93136 9.65572 8.11256 9.96827C8.29376 10.2767 8.91148 11.2977 9.82159 12.1186C10.9994 13.1771 11.9507 13.5188 12.2925 13.6605C12.5478 13.7689 12.8484 13.7439 13.0337 13.5438C13.2685 13.2855 13.5609 12.8604 13.8574 12.4395C14.0674 12.1395 14.3351 12.102 14.6151 12.2061C14.8993 12.3062 16.4065 13.0604 16.7154 13.2146C17.0242 13.373 17.2301 13.448 17.3043 13.5772C17.3784 13.7189 17.3784 14.3356 17.1231 15.0649Z" fill="#3E3F46"/>
</svg>
