<svg width="26" height="20" viewBox="0 0 26 20" fill="none" xmlns="http://www.w3.org/2000/svg">
<path d="M24.9626 4.18608C24.9626 4.18608 24.7027 2.29737 23.9673 1.46732C23.0162 0.368883 21.9328 0.368883 21.4572 0.324151C17.9519 0.060724 12.6719 0.0159912 12.6719 0.0159912C12.6719 0.0159912 11.3531 0.0259318 9.59306 0.0706647C7.83305 0.115397 5.63671 0.189952 3.8865 0.324151C3.41095 0.368883 2.32749 0.413616 1.37639 1.46235C0.596885 2.29737 0.381173 4.18608 0.381173 4.18608C0.381173 4.18608 0.121338 6.42273 0.121338 8.65937V10.722C0.121338 12.9587 0.381173 15.1556 0.381173 15.1556C0.381173 15.1556 0.641008 17.0443 1.37639 17.8743C2.32749 18.9728 3.58254 18.928 4.14633 19.0573C6.13677 19.276 12.6719 19.3207 12.6719 19.3207C12.6719 19.3207 17.9519 19.3207 21.4572 19.0125C21.9328 18.9678 23.0162 18.9231 23.9673 17.8694C24.7027 17.0343 24.9626 15.1506 24.9626 15.1506C24.9626 15.1506 25.2224 12.914 25.2224 10.7171V8.6544C25.2224 6.42273 24.9626 4.18608 24.9626 4.18608ZM9.64209 14.7579V5.23979L17.8637 10.1107L9.64209 14.7579Z" fill="#D8362A"/>
</svg>
